<?xml version="1.0" encoding="UTF-8"?>
<svg id="Layer_1" data-name="Layer 1" xmlns="http://www.w3.org/2000/svg" viewBox="0 0 443.5461 402">
  <defs>
    <style>
                  path {
        fill: #292929;
    }
    @media (prefers-color-scheme: dark) {
        path { fill: white; }
    }
    </style>
  </defs>
  <path  d="M13.2054,.0404h2.92c102.4193,0,204.8387,0,307.258,0,26.5762,0,53.1523,.0148,79.7284-.0403,1.5844-.0033,2.4743,.4961,3.3492,1.7902,11.8786,17.5698,23.8162,35.0997,35.7349,52.6423,.4129,.6077,.781,1.2458,1.3503,2.159-1.0502,0-1.7856,.0005-2.521,0-57.7317-.0445-115.4636-.0176-173.195-.1517-71.6081-.1663-143.2159-.471-214.824-.6749-1.6209-.0046-2.6144-.4636-3.5401-1.8411C37.8636,36.6585,26.1953,19.4374,14.5484,2.2019c-.413-.6112-.7804-1.2531-1.343-2.1616Z"/>
  <path  d="M189.2451,221.3315h69.4858v180.6685h-69.4858V221.3315Z"/>
  <path  d="M0,81.1378H258.9853v42.7411h-2.56c-74.6707-.0003-149.3413-.0061-224.012,.0357-1.6258,.0009-2.7425-.4416-3.6679-1.7488-6.2478-8.8253-12.5444-17.6161-18.7861-26.4457-2.9619-4.1899-5.8403-8.4387-8.7495-12.6657-.3786-.5501-.7148-1.1294-1.2098-1.9166Z"/>
  <path  d="M89.3054,153.3399h169.6771v42.0765c-2.3728,0-4.6412-.011-6.9094,.0016-43.0829,.2386-86.1659,.4691-129.2484,.7595-1.7766,.012-2.9342-.4634-3.9847-1.9195-9.5305-13.2106-19.1244-26.3754-28.6949-39.5572-.2683-.3696-.4826-.7785-.8397-1.361Z"/>
</svg>